# xmcd
#
# Track frame offsets:
#	150
#	15325
#	30956
#	50436
#	74548
#	91981
#	111243
#	131293
#	155046
#	169192
#	183861
#	203792
#	229204
#	252466
#	271230
#	295294
#
# Disc length: 4144 seconds
#
# Revision: 1
# Processed by: cddbd v1.5.2PL0 Copyright (c) Steve Scherf et al.
# Submitted via: audiograbber 1.83.01
#
DISCID=db102e10
DTITLE=Various Artist - Black-eyed Sally's Favorite Blues - Volume 2
DYEAR=1999
DGENRE=Blues
TTITLE0=Cookie McGee - Back Playing the Blues
TTITLE1=George Stancell - Gonna Keep On
TTITLE2=Percy Strother - So Called Friends
TTITLE3=Larry Garner - Dog House Blues
TTITLE4=Phillip Walker - Young Devil
TTITLE5=TuTu Jones - My Fault
TTITLE6=Roy Gaines - Sweet Pig Porker
TTITLE7=Guitar Shorty - No Educated Women
TTITLE8=Willie Edwards - Read Between the Lines
TTITLE9=Andrew "Jr Boy" Jones - Big Legs Heavy Bottom
TTITLE10=Johnny Rawls - Lucy
TTITLE11=Phil Guy - You at My Door
TTITLE12=Kris Wiley - Bad Situation
TTITLE13=Johnny Marshall - That's When the Blues Puts its Hook in You
TTITLE14=Eddie Kirkland - Love Me
TTITLE15=Deira Farr - The Search is Over
EXTD=
EXTT0=
EXTT1=
EXTT2=
EXTT3=
EXTT4=
EXTT5=
EXTT6=
EXTT7=
EXTT8=
EXTT9=
EXTT10=
EXTT11=
EXTT12=
EXTT13=
EXTT14=
EXTT15=
PLAYORDER=
